<svg xmlns="http://www.w3.org/2000/svg" viewBox="0 0 288 67.5">
  <defs>
    <style>
      .cls-1 {
        fill: #fff;
      }

      .cls-2 {
        fill: #131313;
      }
    </style>
  </defs>
  <g id="Layer_2" data-name="Layer 2">
    <g id="Layer_1-2" data-name="Layer 1">
      <g id="pill_with_circle">
        <rect x="29.95" y="0.59" width="222.94" height="66.61"/>
        <circle cx="33.6" cy="33.9" r="33.6"/>
        <circle cx="254.4" cy="33.6" r="33.6"/>
        <circle class="cls-1" cx="32.55" cy="33.6" r="26.65"/>
      </g>
      <g id="logo">
        <path class="cls-2" d="M32.61,9.6A24.53,24.53,0,0,1,57,31l-19.39,27a24.49,24.49,0,1,1-5-48.47Z"/>
        <path class="cls-1" d="M33.63,19c-8.93,0-13.9,3.7-13.9,7.53,0,3.06,2.29,5,6,5,3.45,0,5.74-1.28,5.74-3.06l-.13-.89a1.75,1.75,0,0,1-.12-.9c0-.38.12-1.78,2.29-1.78,2.43,0,2.43,2,2.43,3.06v5.36h-.51c-11.87.25-18,3.18-18,8.67,0,4.46,4,7.4,10.08,7.4,3.57,0,7.14-1.79,8.67-4.21L48,28.1C48,23.76,43.32,19,33.63,19Zm2,21.3a2.86,2.86,0,0,1-2.93,2.81,2.39,2.39,0,0,1-2.68-2.56c0-1.91,1.27-3.82,5.1-4.2h.64Z"/>
      </g>
    </g>
  </g>
</svg>
