<svg xmlns="http://www.w3.org/2000/svg" viewBox="0 0 288 72.01">
  <defs>
    <style>
      .cls-1, .cls-2, .cls-3 {
        fill: #fff;
      }

      .cls-2, .cls-3 {
        font-size: 20.51px;
        letter-spacing: 0em;
      }

      .cls-2 {
        font-family: Helvetica-Bold, Helvetica;
        font-weight: 700;
      }

      .cls-3 {
        font-family: MyriadPro-Regular, Myriad Pro;
      }

      .cls-4 {
        letter-spacing: -0.04em;
      }

      .cls-5 {
        letter-spacing: -0.04em;
      }

      .cls-6 {
        letter-spacing: 0.01em;
      }

      .tunein-green {
        fill: #35b3a6;
      }
    </style>

    <symbol id="podcast_logo" data-name="podcast_logo" viewBox="0 0 512 512">
      <g>
        <path d="M256 64c98 0 179 73 191 168L295 444A192 192 0 0 1 64 256c0 -106 86 -192 192 -192z"/>
        <path fill="#c53827" d="M264 138c-70 0 -109 29 -109 59 0 24 18 39 47 39 27 0 45 -10 45 -24l-1 -7c-1 -1 -1 -4 -1 -7 0 -3 1 -14 18 -14 19 0 19 16 19 24v42h-4c-93 2 -141 25 -141 68 0 35 31 58 79 58 28 0 56 -14 68 -33L377 209c0 -34 -37 -71 -113 -71zm16 167c0 12 -10 22 -23 22 -13 0 -21 -7 -21 -20 0 -15 10 -30 40 -33h5z"/>
      </g>
    </symbol>

  </defs>
  <g id="Layer_2" data-name="Layer 2">
    <g id="pill">
      <g id="pill_with_arrow">
        <g id="pill_with_circle">
          <rect x="29.95" y="0.59" width="222.94" height="66.61"/>
          <circle cx="33.6" cy="33.9" r="33.6"/>
          <circle cx="254.4" cy="33.6" r="33.6"/>
          <circle class="cls-1" cx="32.55" cy="33.6" r="26.65"/>
        </g>
        <path class="cls-1" d="M252.8,25.16l14.69,8.43L252.8,42Z"/>
      </g>
    </g>
    <g id="podcast_host_text">
      <text class="cls-2" transform="translate(64.92 24.47)">m ipsum fantacy</text>
      <text class="cls-3" transform="translate(66.38 61.68)">on<tspan class="cls-4" x="22.68" y="0"> </tspan><tspan class="cls-5" x="26.21" y="0">T</tspan><tspan x="35.5" y="0">une</tspan><tspan class="cls-6" x="68.52" y="0">I</tspan><tspan x="73.64" y="0">n</tspan></text>
    </g>
    <g id="logo">
      <use width="55.43" height="64" transform="matrix(0.73, 0, 0, -0.73, 12.35, 57.22)" xlink:href="#podcast_logo"/>

    </g>
  </g>
</svg>
