<svg xmlns="http://www.w3.org/2000/svg" viewBox="0 0 288 67.5">
  <defs>
    <style>
      .cls-1, .cls-2, .cls-4 {
        fill: #fff;
      }

      .acast-white {
        fill: #fff;
      }
      .cls-2, .cls-3, .cls-4, .cls-8 {
        isolation: isolate;
      }

      .cls-2, .cls-3 {
        font-size: 18px;
        font-family: Monaco;
      }

      .cls-3, .cls-8 {
        fill: none;
        stroke: #fff;
        stroke-miterlimit: 10;
      }

      .cls-4, .cls-8 {
        font-size: 24px;
        font-family: MyriadPro-Bold, Myriad Pro;
        font-weight: 700;
      }

      .cls-5 {
        letter-spacing: -0.01em;
      }

      .cls-6 {
        letter-spacing: 0em;
      }

      .cls-7 {
        letter-spacing: -0.01em;
      }
    </style>
  </defs>
  <g id="Layer_2" data-name="Layer 2">
    <g id="Layer_1-2" data-name="Layer 1">
      <g id="graphics">
        <g id="pill_with_arrow" data-name="pill with arrow">
          <g id="pill_with_circle" data-name="pill with circle">
            <rect x="30" y="0.6" width="222.9" height="66.6"/>
            <circle cx="33.6" cy="33.9" r="33.6"/>
            <circle cx="254.4" cy="33.6" r="33.6"/>
            <circle class="cls-1" cx="32.5" cy="33.6" r="26.6"/>
          </g>
          <path class="cls-1" d="M252.8,25.2l14.7,8.4L252.8,42Z"/>
        </g>
      </g>
      <g id="button-text">
        <text class="cls-2" transform="translate(57.13 55.44)">on Google Podcasts</text>
        <text class="cls-3" transform="translate(57.13 55.44)">on Google Podcasts</text>
        <text class="cls-4" transform="translate(85.68 28.58)"><tspan class="cls-5">L</tspan><tspan class="cls-6" x="12.05" y="0">o</tspan><tspan class="cls-7" x="25.9" y="0">r</tspan><tspan x="34.82" y="0">em ipsum</tspan></text>
        <text class="cls-8" transform="translate(85.68 28.58)"><tspan class="cls-5">L</tspan><tspan class="cls-6" x="12.05" y="0">o</tspan><tspan class="cls-7" x="25.9" y="0">r</tspan><tspan x="34.82" y="0">em ipsum</tspan></text>
      </g>
      <g id="logo">
        <path id="acast-logo-background" d="M32.56,9.32A24.63,24.63,0,0,1,57,30.82L37.56,58a24.58,24.58,0,1,1-5-48.65Z"/>
        <path id="acast-logo-foreground" class="acast-white" d="M33.59,18.79c-9,0-14,3.71-14,7.55,0,3.08,2.31,5,6,5,3.46,0,5.76-1.28,5.76-3.08l-.13-.89a1.75,1.75,0,0,1-.12-.9c0-.38.12-1.79,2.3-1.79,2.43,0,2.43,2.05,2.43,3.07v5.38h-.51c-11.91.26-18.05,3.2-18.05,8.7,0,4.49,4,7.43,10.11,7.43,3.59,0,7.17-1.79,8.71-4.22l11.9-17.16C48.05,23.53,43.32,18.79,33.59,18.79Zm2,21.38a2.87,2.87,0,0,1-3,2.82A2.4,2.4,0,0,1,30,40.43c0-1.92,1.28-3.84,5.12-4.23h.64Z"/>
      </g>
    </g>
  </g>
</svg>
