<svg xmlns="http://www.w3.org/2000/svg" viewBox="0 0 288 67.5">
  <defs>
    <style>
      .cls-1 {
        fill: #fff;
      }

      .cls-2 {
        fill: #131313;
      }
    </style>
  </defs>
  <g id="Layer_2" data-name="Layer 2">
    <g id="Layer_1-2" data-name="Layer 1">
      <g id="pill_with_arrow">
        <g id="pill_with_circle">
          <rect x="29.95" y="0.59" width="222.94" height="66.61"/>
          <circle cx="33.6" cy="33.9" r="33.6"/>
          <circle cx="254.4" cy="33.6" r="33.6"/>
          <circle class="cls-1" cx="32.55" cy="33.6" r="26.65"/>
        </g>
        <path class="cls-1" d="M252.8,25.16l14.69,8.43L252.8,42Z"/>
      </g>
      <g id="logo">
        <path class="cls-2" d="M32.61,9.11A24.53,24.53,0,0,1,57,30.54l-19.39,27a24.49,24.49,0,1,1-5-48.47Z"/>
        <path class="cls-1" d="M33.63,18.55c-8.93,0-13.9,3.7-13.9,7.52,0,3.06,2.29,5,6,5,3.45,0,5.74-1.28,5.74-3.06l-.13-.9c-.12-.12-.12-.51-.12-.89s.12-1.79,2.29-1.79c2.43,0,2.43,2.05,2.43,3.07v5.35h-.51c-11.87.26-18,3.19-18,8.67,0,4.47,4,7.4,10.08,7.4,3.57,0,7.14-1.78,8.67-4.21L48,27.6C48,23.27,43.32,18.55,33.63,18.55Zm2,21.3a2.85,2.85,0,0,1-2.93,2.8,2.38,2.38,0,0,1-2.68-2.55c0-1.91,1.27-3.82,5.1-4.21h.64Z"/>
      </g>
    </g>
  </g>
</svg>
