<svg xmlns="http://www.w3.org/2000/svg" xmlns:xlink="http://www.w3.org/1999/xlink" viewBox="0 0 288 67.5">
  <defs>
    <style>
      .cls-1 {
        fill: #f25c31;
      }

      .cls-2 {
        fill: #fefefe;
      }

      .cls-3 {
        fill: #fff;
      }
    </style>
    <symbol id="A" data-name="A" viewBox="0 0 55.43 64">
      <g>
        <path class="cls-1" d="M0,32V45.39a4.87,4.87,0,0,0,2.61,4.54L25,63.16a4.89,4.89,0,0,0,5.48,0L52.85,49.9a4.87,4.87,0,0,0,2.57-4.48V18.63a4.87,4.87,0,0,0-2.55-4.49L30.38.81a4.78,4.78,0,0,0-5.3,0L2.63,14.07A4.92,4.92,0,0,0,0,18.7Zm33.41.18v6.15a1.82,1.82,0,0,1-1.72,2,1.85,1.85,0,0,1-2.12-1.9v-4a1.07,1.07,0,0,0-1.37-1.15c-.65.14-.82.61-.82,1.21v5.34a2,2,0,0,1-.88,1.81,1.92,1.92,0,0,1-3-1.66V35.58c0-.79-.37-1.17-1.05-1.2s-1.14.4-1.19,1.2v1.5A1.69,1.69,0,0,1,20,38.74a1.89,1.89,0,0,1-2.58-1.8V33.11A1,1,0,0,0,16.37,32a1,1,0,0,0-1.15,1c0,.19,0,.4,0,.6a2,2,0,0,1-1.9,1.74,1.91,1.91,0,0,1-1.9-1.75v-6a1.88,1.88,0,0,1,1.89-1.75,1.93,1.93,0,0,1,1.9,1.74c0,.23-.06.52.05.69.22.34.5.76.84.87a1.26,1.26,0,0,0,1.05-.33,1.51,1.51,0,0,0,.29-1l0-5.94a1.92,1.92,0,0,1,2.79-1.7,1.82,1.82,0,0,1,1,1.81v7.86c0,1.22.37,1.77,1.16,1.76s1.1-.52,1.1-1.7V26.35a1.88,1.88,0,0,1,1.9-2,1.92,1.92,0,0,1,2,2.07v2.72c0,.83.42,1.28,1.1,1.27s1.07-.47,1.08-1.29V26a1.92,1.92,0,1,1,3.83.15v6.05Zm6.09-2.13v3.42a1.83,1.83,0,0,1-1.82,2,1.78,1.78,0,0,1-2-1.78l0-7.24a1.84,1.84,0,0,1,2-1.8,1.87,1.87,0,0,1,1.83,2V30Zm2.24-1v-.9A1.92,1.92,0,0,1,45.56,28a12.39,12.39,0,0,1,0,2.11A1.91,1.91,0,0,1,41.75,30c0-.3,0-.6,0-.9Z"/>
        <path class="cls-2" d="M33.42,32.17v-6a1.89,1.89,0,0,0-1.89-2A1.86,1.86,0,0,0,29.59,26l0,3.12c0,.83-.4,1.28-1.08,1.29s-1.09-.44-1.1-1.26V26.4a1.91,1.91,0,0,0-2-2.07,1.88,1.88,0,0,0-1.9,2v3.52c0,1.18-.33,1.69-1.1,1.7s-1.16-.53-1.16-1.76V22a1.8,1.8,0,0,0-1-1.8,1.91,1.91,0,0,0-2.79,1.69l0,5.94a1.51,1.51,0,0,1-.29,1,1.26,1.26,0,0,1-1.05.33c-.34-.1-.61-.52-.84-.86-.1-.17,0-.46-.05-.7a1.94,1.94,0,0,0-1.9-1.74,1.87,1.87,0,0,0-1.88,1.75v6a1.91,1.91,0,0,0,1.9,1.74,1.94,1.94,0,0,0,1.9-1.74c0-.2,0-.4,0-.6a1,1,0,0,1,1.15-1,1,1,0,0,1,1.06,1.09l0,3.83A1.89,1.89,0,0,0,20,38.74a1.7,1.7,0,0,0,1.22-1.66v-1.5c0-.8.49-1.22,1.2-1.2s1,.4,1,1.2l0,4.33a1.94,1.94,0,1,0,3.87-.15V34.42c0-.6.17-1.06.82-1.2a1.06,1.06,0,0,1,1.37,1.15l0,4a1.92,1.92,0,1,0,3.83-.08V32.17ZM39.51,30V26.61a1.92,1.92,0,0,0-3.83-.2v7.25a1.78,1.78,0,0,0,2,1.77,1.84,1.84,0,0,0,1.83-2V30Zm2.24-1V30a1.91,1.91,0,0,0,3.81.14,11.44,11.44,0,0,0,0-2.11,1.92,1.92,0,0,0-3.81.16c0,.3,0,.6,0,.9Z"/>
      </g>
    </symbol>
  </defs>
  <g id="Layer_2" data-name="Layer 2">
    <g id="Layer_1-2" data-name="Layer 1">
      <g id="pill">
        <rect x="29.95" y="0.59" width="222.94" height="66.61"/>
        <circle cx="33.6" cy="33.9" r="33.6"/>
        <circle cx="254.4" cy="33.6" r="33.6"/>
      </g>
      <circle class="cls-3" cx="33.6" cy="33.6" r="26.65"/>
      <use width="55.43" height="64" transform="matrix(0.77, 0, 0, -0.77, 12.27, 58.52)" xlink:href="#A"/>
      <path class="cls-3" d="M239.71,25.16l14.69,8.43L239.71,42Z"/>
    </g>
  </g>
</svg>
