<svg xmlns="http://www.w3.org/2000/svg" viewBox="0 0 288 67.5">
  <defs>
    <style>
      .cls-1 {
        fill: #fff;
      }

      .cls-2 {
        fill: #ec5043;
      }

      .cls-3 {
        fill: #4586f7;
      }

      .cls-4 {
        fill: #fdc00d;
      }

      .cls-5 {
        fill: #3bab59;
      }
    </style>
  </defs>
  <g id="Layer_2" data-name="Layer 2">
    <g id="Layer_1-2" data-name="Layer 1">
      <g id="pill_with_arrow">
        <g id="pill_with_circle">
          <rect x="29.95" y="0.59" width="222.94" height="66.61"/>
          <circle cx="33.6" cy="33.9" r="33.6"/>
          <circle cx="254.4" cy="33.6" r="33.6"/>
          <circle class="cls-1" cx="32.55" cy="33.6" r="26.65"/>
        </g>
        <path class="cls-1" d="M252.8,25.16l14.69,8.43L252.8,42Z"/>
      </g>
      <g>
        <path class="cls-2" d="M31.71,8.05a1.61,1.61,0,0,1,.72-.16c.19,0,.42,0,.59.05a2.41,2.41,0,0,1,1.21.71l4.2,4.2a4.57,4.57,0,0,1,.43.45c-1.57,1.6-3.18,3.18-4.76,4.77-.52.51-1,1-1.55,1.55-.7.65-1.35,1.34-2,2q-4.62,4.63-9.24,9.27c-1.44,1.45-2.9,2.89-4.34,4.34l-4.67,4.67c0-3.4,0-6.79,0-10.19,0-.64,0-1.28,0-1.93,0-.13.09-.23.08-.36l.26-.46a7.28,7.28,0,0,1,.76-.81L30.87,8.64A2.17,2.17,0,0,1,31.71,8.05Z"/>
        <path class="cls-3" d="M34.1,18.07c1.58-1.59,3.19-3.17,4.76-4.77,4.27,4.3,8.57,8.59,12.85,12.88a3.28,3.28,0,0,1,1,1.33,3.12,3.12,0,0,1,.11,1.14V47.51a2.24,2.24,0,0,1-2.32,2.3H43.82c0-3,0-6,0-9,0-3.3,0-6.6,0-9.91l-8.34-8.34c-1-1-2-1.95-2.92-2.93C33.08,19.11,33.58,18.58,34.1,18.07Z"/>
        <path class="cls-4" d="M16.93,35.25c1.44-1.45,2.9-2.89,4.34-4.34,0,3.29,0,6.59,0,9.89,0,3,0,6,0,9h-7a2.31,2.31,0,0,1-2-1.94c0-2.65,0-5.3,0-7.95Z"/>
        <path class="cls-5" d="M21.27,40.8H43.81c0,3,0,6,0,9H21.27C21.28,46.81,21.27,43.8,21.27,40.8Z"/>
      </g>
    </g>
  </g>
</svg>
