<svg xmlns="http://www.w3.org/2000/svg" viewBox="0 0 288 67.5">
  <defs>
    <style>
      .cls-1 {
        fill: #fff;
      }

      .cls-2 {
        fill: #c6002b;
      }
    </style>
  </defs>
  <g id="Layer_2" data-name="Layer 2">
    <g id="Layer_1-2" data-name="Layer 1">
      <g id="pill_with_arrow">
        <g id="pill_with_circle">
          <rect x="29.95" y="0.59" width="222.94" height="66.61"/>
          <circle cx="33.6" cy="33.9" r="33.6"/>
          <circle cx="254.4" cy="33.6" r="33.6"/>
          <circle class="cls-1" cx="32.55" cy="33.6" r="26.65"/>
        </g>
        <path class="cls-1" d="M252.8,25.16l14.69,8.43L252.8,42Z"/>
      </g>
    </g>
    <g id="logo">
      <path class="cls-2" d="M44,19a13.67,13.67,0,0,0-11.28,6.1A13.67,13.67,0,0,0,21.44,19a13.49,13.49,0,0,0-13.5,13.5c0,4.73,3,8.14,6.13,11.3L26.31,55.4A1,1,0,0,0,28,54.67v-9a4.72,4.72,0,0,1,9.44,0v9a1,1,0,0,0,1.7.73L51.38,43.83c3.13-3.16,6.12-6.57,6.12-11.3A13.49,13.49,0,0,0,44,19ZM20.47,42.94a.94.94,0,0,1-.7.31.9.9,0,0,1-.62-.23c-4-3.57-6.08-7.3-6.08-11.08v-.05a10.93,10.93,0,0,1,4.61-8.6.94.94,0,0,1,1.29.3.93.93,0,0,1-.29,1.29,9,9,0,0,0-3.74,7v.05c0,3.22,1.83,6.48,5.45,9.68A.94.94,0,0,1,20.47,42.94Zm6-3.47a.93.93,0,0,1-.81.48,1,1,0,0,1-.46-.12,9,9,0,0,1-4.58-7.49v0a7.52,7.52,0,0,1,4-6.66.94.94,0,0,1,1.27.39.93.93,0,0,1-.4,1.26,5.68,5.68,0,0,0-3,5,7,7,0,0,0,3.62,5.87A.92.92,0,0,1,26.48,39.47Zm6.24-2.39A4.06,4.06,0,1,1,36.78,33,4.06,4.06,0,0,1,32.72,37.08Zm7.51,2.75a.92.92,0,0,1-.45.12,1,1,0,0,1-.82-.48.93.93,0,0,1,.36-1.27A7.07,7.07,0,0,0,43,32.33a5.71,5.71,0,0,0-3.05-5,.93.93,0,1,1,.87-1.65,7.53,7.53,0,0,1,4,6.66v0A9,9,0,0,1,40.23,39.83Zm12.14-7.89c0,3.78-2,7.51-6.07,11.08a.94.94,0,0,1-1.24-1.4c3.61-3.2,5.44-6.46,5.44-9.68v-.05a9,9,0,0,0-3.74-7,.94.94,0,0,1,1-1.59,10.9,10.9,0,0,1,4.61,8.6Z"/>
    </g>
  </g>
</svg>
