<svg xmlns="http://www.w3.org/2000/svg" viewBox="0 0 288 67.5">
  <defs>
    <style>
      .cls-1 {
        fill: #fff;
      }

      .cls-2 {
        fill: #fc7e0f;
        fill-rule: evenodd;
      }
    </style>
  </defs>
  <g id="Layer_2" data-name="Layer 2">
    <g id="Layer_1-2" data-name="Layer 1">
      <g id="pill_with_arrow">
        <g id="pill_with_circle">
          <rect x="29.95" y="0.59" width="222.94" height="66.61"/>
          <circle cx="33.6" cy="33.9" r="33.6"/>
          <circle cx="254.4" cy="33.6" r="33.6"/>
          <circle class="cls-1" cx="32.55" cy="33.6" r="26.65"/>
        </g>
        <path class="cls-1" d="M252.8,25.16l14.69,8.43L252.8,42Z"/>
      </g>
    </g>
    <g id="logo">
      <g id="overcastCanvas-group">
        <path id="overcastCanvas-bezier" class="cls-2" d="M31.77,56.87a22.95,22.95,0,1,1,23-22.95A22.89,22.89,0,0,1,31.77,56.87Zm0-9.08,1.72-1.73-1.72-6.59-1.72,6.59Zm-2.2-.1-.86,3.25,2-2Zm4.4,0-1.15,1.15,2,2Zm1.63,5.93-3.83-3.83L28,53.62a24.72,24.72,0,0,0,3.82.38A16.65,16.65,0,0,0,35.6,53.62ZM31.77,13.84a20.06,20.06,0,0,0-6.6,39l4.31-16A3.7,3.7,0,0,1,28,33.82a3.82,3.82,0,1,1,6.12,3.06l4.3,16a20.06,20.06,0,0,0-6.6-39Zm13.1,30a1.46,1.46,0,0,1-2,.29,1.3,1.3,0,0,1-.29-1.91,14.71,14.71,0,0,0,0-16.64,1.29,1.29,0,0,1,.29-1.91,1.47,1.47,0,0,1,2,.28,17.23,17.23,0,0,1,0,19.89Zm-7-3.73a1.61,1.61,0,0,1,.1-2.19,6.29,6.29,0,0,0,1.43-4,6.59,6.59,0,0,0-1.43-4,1.72,1.72,0,0,1-.1-2.2,1.31,1.31,0,0,1,2-.09,9.52,9.52,0,0,1,0,12.62A1.39,1.39,0,0,1,37.89,40.13Zm-12.24,0a1.39,1.39,0,0,1-2,.1,9.52,9.52,0,0,1,0-12.62,1.31,1.31,0,0,1,2,.09,1.62,1.62,0,0,1-.09,2.2,6.57,6.57,0,0,0-1.44,4,6.26,6.26,0,0,0,1.44,4A1.61,1.61,0,0,1,25.65,40.13Zm-5,4a1.48,1.48,0,0,1-2-.29,17.23,17.23,0,0,1,0-19.89,1.49,1.49,0,0,1,2-.28A1.3,1.3,0,0,1,21,25.6a14.66,14.66,0,0,0,0,16.64A1.39,1.39,0,0,1,20.68,44.15Z"/>
      </g>
    </g>
  </g>
</svg>
