<?xml version="1.0" encoding="utf-8"?>
<!-- Generator: Adobe Illustrator 25.1.0, SVG Export Plug-In . SVG Version: 6.00 Build 0)  -->
<svg version="1.1" xmlns="http://www.w3.org/2000/svg" xmlns:xlink="http://www.w3.org/1999/xlink" x="0px" y="0px"
	 viewBox="0 0 288 67.5" style="enable-background:new 0 0 288 67.5;" xml:space="preserve">
<style type="text/css">
	.st0{fill:#FFFFFF;}
	.st1{fill:#1ED760;}
	.st2{fill:#FFFFFF;stroke:#FFFFFF;stroke-miterlimit:10;}
	.st3{font-family:'Monaco';}
	.st4{font-size:18px;}
	.st5{font-family:'MyriadPro-Regular';}
	.st6{font-size:24px;}
</style>
<g id="graphics">
	<g id="pill_with_arrow">
		<g id="pill_with_circle">
			<rect x="30" y="0.6" width="222.9" height="66.6"/>
			<circle cx="33.6" cy="33.9" r="33.6"/>
			<circle cx="254.4" cy="33.6" r="33.6"/>
			<circle class="st0" cx="32.5" cy="33.6" r="26.6"/>
		</g>
		<path class="st0" d="M252.8,25.2l14.7,8.4L252.8,42V25.2z"/>
	</g>
	<g id="logo">
		<path class="st1" d="M32.5,7C17.9,7,6,18.9,6,33.6s11.9,26.6,26.6,26.6c14.7,0,26.6-11.9,26.6-26.5C59.1,18.9,47.3,7,32.5,7
			C32.6,7,32.6,7,32.5,7z M44.7,45.3c-0.5,0.8-1.5,1-2.3,0.6c0,0,0,0,0,0c-6.2-3.8-14.1-4.7-23.4-2.6c-0.9,0.2-1.8-0.4-2-1.2
			c-0.2-0.9,0.4-1.8,1.2-2c10.1-2.3,18.8-1.3,25.8,3C44.9,43.6,45.2,44.6,44.7,45.3z M48,38.1c-0.6,1-1.9,1.3-2.8,0.7c0,0,0,0,0,0
			c-7.1-4.4-18-5.7-26.5-3.1c-1.1,0.3-2.3-0.3-2.6-1.4c-0.3-1.1,0.3-2.3,1.4-2.6c9.6-2.9,21.7-1.5,29.8,3.5
			C48.3,35.8,48.6,37.1,48,38.1C48,38.1,48,38.1,48,38.1z M48.3,30.6c-8.6-5.1-22.7-5.6-30.9-3.1c-1.3,0.5-2.7-0.2-3.2-1.5
			c-0.5-1.3,0.2-2.7,1.5-3.2c0.1,0,0.2-0.1,0.3-0.1c9.4-2.9,25-2.3,34.8,3.5c1.2,0.7,1.6,2.2,0.9,3.4C51,30.9,49.5,31.3,48.3,30.6
			L48.3,30.6L48.3,30.6z"/>
	</g>
</g>
<g id="button-text">
	<text transform="matrix(1 0 0 1 57.1302 55.4441)" class="st2 st3 st4">on Google Podcasts</text>
	<text transform="matrix(1 0 0 1 85.6793 28.5843)" class="st2 st5 st6">Lorem ipsum</text>
</g>
</svg>
