<svg xmlns="http://www.w3.org/2000/svg" viewBox="0 0 288 67.5">
  <defs>
    <style>
      .cls-1 {
        fill: #fff;
      }

      .cls-2 {
        fill: #1ed760;
      }
    </style>
  </defs>
  <g id="Layer_2" data-name="Layer 2">
    <g id="Layer_1-2" data-name="Layer 1">
      <g id="pill_with_arrow">
        <g id="pill_with_circle">
          <rect x="29.95" y="0.59" width="222.94" height="66.61"/>
          <circle cx="33.6" cy="33.9" r="33.6"/>
          <circle cx="254.4" cy="33.6" r="33.6"/>
          <circle class="cls-1" cx="32.55" cy="33.6" r="26.65"/>
        </g>
        <path class="cls-1" d="M252.8,25.16l14.69,8.43L252.8,42Z"/>
      </g>
    </g>
    <g id="logo">
      <path class="cls-2" d="M32.55,7A26.57,26.57,0,1,0,59.12,33.6,26.57,26.57,0,0,0,32.55,7ZM44.73,45.35a1.65,1.65,0,0,1-2.27.56c-6.25-3.82-14.1-4.68-23.35-2.57a1.65,1.65,0,1,1-.74-3.22c10.13-2.32,18.81-1.32,25.81,3A1.64,1.64,0,0,1,44.73,45.35ZM48,38.12a2.07,2.07,0,0,1-2.85.68c-7.14-4.39-18-5.66-26.47-3.1a2.07,2.07,0,1,1-1.21-4c9.65-2.93,21.65-1.51,29.85,3.53A2.07,2.07,0,0,1,48,38.12Zm.28-7.54C39.7,25.5,25.57,25,17.39,27.51A2.48,2.48,0,1,1,16,22.76c9.39-2.85,25-2.3,34.85,3.55a2.48,2.48,0,1,1-2.54,4.27Z"/>
    </g>
  </g>
</svg>
