<svg xmlns="http://www.w3.org/2000/svg" viewBox="0 0 288 67.5">
  <defs>
    <style>
      .cls-1 {
        fill: #fff;
      }

      .cls-2 {
        fill: #ef712b;
      }
    </style>
  </defs>
  <g id="Layer_2" data-name="Layer 2">
    <g id="Layer_1-2" data-name="Layer 1">
      <g id="pill_with_arrow">
        <g id="pill_with_circle">
          <rect x="29.95" y="0.59" width="222.94" height="66.61"/>
          <circle cx="33.6" cy="33.9" r="33.6"/>
          <circle cx="254.4" cy="33.6" r="33.6"/>
          <circle class="cls-1" cx="32.55" cy="33.6" r="26.65"/>
        </g>
        <path class="cls-1" d="M252.8,25.16l14.69,8.43L252.8,42Z"/>
      </g>
    </g>
    <g id="logo">
      <circle class="cls-2" cx="32.42" cy="33.6" r="23.44"/>
      <path class="cls-1" d="M14.63,39a.16.16,0,0,1-.15.16.17.17,0,0,1-.15-.16l-.23-1.89.23-1.89c.08-.15.08-.15.15-.15a.16.16,0,0,1,.15.15h0l.3,1.89Zm1.29,1.14a.17.17,0,0,1-.15.15.16.16,0,0,1-.15-.15l-.31-3,.31-3.1a.16.16,0,0,1,.15-.15.17.17,0,0,1,.15.15l.38,3.1Zm1.43.53a.16.16,0,0,1-.15.15.17.17,0,0,1-.15-.15l-.3-3.56.3-3.7a.16.16,0,0,1,.15-.15.15.15,0,0,1,.15.15l.38,3.7Zm1.37.07a.25.25,0,0,1-.23.23.24.24,0,0,1-.23-.23L18,37.15l.3-3.78a.23.23,0,0,1,.46,0l.37,3.78Zm1.43.08a.24.24,0,0,1-.22.23c-.08,0-.16-.08-.23-.23l-.3-3.71.3-3.47a.24.24,0,0,1,.23-.23c.07,0,.15.07.22.23l.3,3.47Zm1.44,0h0c0,.15-.15.23-.3.23a.21.21,0,0,1-.23-.23l-.3-3.71.3-5.74c0-.15.15-.23.3-.23a.21.21,0,0,1,.23.23l.3,5.74Zm1.36,0h0a.3.3,0,0,1-.6,0h0l-.23-3.71.23-7a.3.3,0,1,1,.6,0l.3,7Zm1.51-.08h0a.3.3,0,1,1-.6,0l-.23-3.63.23-7.63a.3.3,0,1,1,.6,0l.23,7.63Zm1.44,0c0,.23-.23.31-.38.31a.32.32,0,0,1-.3-.31L25,37.15l.23-7.86c0-.23.23-.3.38-.3a.32.32,0,0,1,.3.3l.23,7.86Zm1.44-.07h0a.38.38,0,1,1-.76,0l-.23-3.56.23-7.63a.38.38,0,0,1,.76,0h0l.22,7.63Zm1.51,0h0a.38.38,0,1,1-.76,0l-.15-3.56.15-7.41a.38.38,0,0,1,.76,0l.23,7.41Zm1.51-.38v.38a.37.37,0,0,1-.15.3.57.57,0,0,1-.3.15A.4.4,0,0,1,29.6,41a.29.29,0,0,1-.07-.23h0l-.15-3.55.15-8.7v-.07a.41.41,0,0,1,.23-.38.45.45,0,0,1,.45,0,.43.43,0,0,1,.23.38l.15,8.77Zm1.44.3h0a.46.46,0,1,1-.91,0l-.08-1.74-.15-1.74.23-9.52v-.08a.63.63,0,0,1,.15-.38c.08-.07.15-.07.3-.07a.29.29,0,0,1,.23.07.43.43,0,0,1,.23.38l.22,9.6Zm12.63.46H32.71a.49.49,0,0,1-.46-.46V27.1c0-.23.08-.38.38-.53A8.07,8.07,0,0,1,35.35,26a7.55,7.55,0,0,1,7.49,6.8,4.27,4.27,0,0,1,3.33,7.87,3.49,3.49,0,0,1-1.74.38Z"/>
    </g>
  </g>
</svg>
