<svg xmlns="http://www.w3.org/2000/svg" viewBox="0 0 276.87 116.52">
  <defs>
    <style>
      .cls-1 {
        fill: #3392c5;
      }

      .cls-2 {
        fill: #020202;
      }

      .cls-3 {
        fill: #3291c4;
      }

      .cls-4 {
        fill: #eb8b22;
      }

      .cls-5 {
        fill: #f9c615;
      }

      .cls-6 {
        fill: #622368;
      }

      .cls-7 {
        fill: #632469;
      }

      .cls-8 {
        fill: #eb8b23;
      }

      .cls-9 {
        fill: #f9c614;
      }

      .cls-10 {
        fill: #c43727;
      }

      .cls-11 {
        fill: #030303;
      }

      .cls-12 {
        fill: #010101;
      }
    </style>
  </defs>
  <g id="Layer_2" data-name="Layer 2">
    <g id="Layer_1-2" data-name="Layer 1">
      <g>
        <path class="cls-1" d="M0,88.86c.34,0,.67,0,1,0H49.74c1.21,0,1.21,0,1.21,1.18v21.74c-.31,0-.57.08-.83.08H0Z"/>
        <path class="cls-2" d="M0,74.67c.41-1.14.84-2.27,1.23-3.42.63-1.88,1.23-3.77,1.78-5.48C4.91,66.85,6.7,68,8.62,68.93a17,17,0,0,0,9.66,1.28,6.86,6.86,0,0,0,1.59-.45,2.21,2.21,0,0,0,.81-3.68,5.41,5.41,0,0,0-2.06-1.34c-2.2-.76-4.46-1.35-6.69-2.06a38.18,38.18,0,0,1-4.16-1.5c-5.79-2.63-8-8-5.75-14a9.18,9.18,0,0,1,5-5.42c6.84-3,13.62-2.86,20.19.87a11.86,11.86,0,0,1,4.31,4.22c.18.3.34.63.54,1L23.92,53a8.1,8.1,0,0,0-5.56-4,15.9,15.9,0,0,0-4-.09,2.05,2.05,0,0,0-2,1.62A2.11,2.11,0,0,0,13.52,53a37.77,37.77,0,0,0,4.34,1.74c2.69,1,5.48,1.66,8.09,2.78a9.65,9.65,0,0,1,6.2,7.57c1,6.41-1.63,11.07-7.87,12.91A28.88,28.88,0,0,1,1.65,76C1.09,75.67.55,75.35,0,75Z"/>
        <path class="cls-3" d="M0,21.93c.34,0,.67,0,1,0H50.89v8.22c-.31,0-.57.06-.84.06H.74l-.55,0c0-2.32,0-4.64,0-7a5.37,5.37,0,0,0-.17-1Z"/>
        <path class="cls-4" d="M220.21,0V30.17h-50.6V0Z"/>
        <path class="cls-5" d="M163.78,116.5l-13.93,0H113.2c0-.37,0-.74,0-1.1V89h50.57a5.4,5.4,0,0,1,.08.69V116C163.81,116.2,163.79,116.35,163.78,116.5Z"/>
        <path class="cls-6" d="M56.73,30.19V6.79h50.63v23.4Z"/>
        <path class="cls-2" d="M268.54,65.58l8.33,13.34c-.43,0-.72.06-1,.06-3.5,0-7,0-10.52,0a1.24,1.24,0,0,1-1.28-.76c-1.82-3.31-3.69-6.59-5.51-9.9a1.14,1.14,0,0,0-1.15-.69c-2,0-4,0-6.06,0V78.91H240.85V40.27a3,3,0,0,1,.52-.07c6.24,0,12.49,0,18.73,0a20.4,20.4,0,0,1,7.4,1.38A11.29,11.29,0,0,1,275,51a14.86,14.86,0,0,1-1.92,10.54A12.6,12.6,0,0,1,268.54,65.58Zm-17.2-6.42c3.08,0,6.09.08,9.1,0a4.58,4.58,0,0,0,4.17-2.44,5.23,5.23,0,0,0-4.05-7.92,13.64,13.64,0,0,0-1.57-.1h-6.92c-.23,0-.47,0-.73.06Z"/>
        <path class="cls-2" d="M174.17,55.65H189V40.25h10.46V78.94h-10.4V64.17H174.2V78.94H163.69V40.25h10.48Z"/>
        <path class="cls-2" d="M204.9,40.22h30.51v8.44h-20v6.86h12v8h-12V70.5h20v8.42H204.9Z"/>
        <path class="cls-7" d="M56.74,89h50.6v16.51H56.74Z"/>
        <path class="cls-8" d="M220.18,105.48H169.62a7.94,7.94,0,0,1-.06-.81c0-5,0-9.9,0-14.85,0-.75.23-.92.94-.92q24.42,0,48.85,0c.52,0,.94,0,.94.73,0,5.13,0,10.27,0,15.4A4.17,4.17,0,0,1,220.18,105.48Z"/>
        <path class="cls-9" d="M163.77,15.15v15H113.22v-15Z"/>
        <path class="cls-2" d="M151.53,53c-2.67-3.8-6.34-4.8-10.67-4a7.79,7.79,0,0,0-6.61,6.13,17.68,17.68,0,0,0-.07,8.12c1.57,7.59,10.83,9.1,15.42,5l2.2-1.94,8.09,4.93a35,35,0,0,1-2.45,3.28A15.18,15.18,0,0,1,149,78.88a28,28,0,0,1-13.34-.58c-7.15-2.11-11.06-7.07-12.24-14.31a24.78,24.78,0,0,1,.43-10.77A16.55,16.55,0,0,1,134.48,41.5a25.58,25.58,0,0,1,18.66.13A11.67,11.67,0,0,1,159.33,47c.36.66.29,1-.41,1.45C156.44,50,154,51.5,151.53,53Z"/>
        <path class="cls-10" d="M276.82,18.24l0,12c-.25,0-.49,0-.74,0h-50V18.14h49.48C276,18.13,276.4,18.2,276.82,18.24Z"/>
        <path class="cls-11" d="M122.3,40.25V48.9H110.93v30H100.36v-30H89.09V40.25Z"/>
        <path class="cls-12" d="M34.34,48.94V40.25H67.51V48.9H56.15v30H45.66v-30Z"/>
        <path class="cls-10" d="M276.82,89v8.87c-.36,0-.72.1-1.08.1H226.05V88.93H227q24.13,0,48.28,0C275.79,88.93,276.31,89,276.82,89Z"/>
        <path class="cls-2" d="M83.54,40.24V78.92H73.11V40.24Z"/>
      </g>
    </g>
  </g>
</svg>
